<?xml version="1.0" encoding="UTF-8"?>
<svg width="256px" height="216px" preserveAspectRatio="xMidYMid" version="1.1" viewBox="0 0 256 216" xmlns="http://www.w3.org/2000/svg">
 <path d="m112.93 0.72922c-4.4272 0.082094-9.9674 2.8433-13.93 1.8894-1.5816-0.38071-3.5146-0.54484-5.407-0.44221-0.03338 0.00193-0.06712-0.00193-0.1005 0-1.9242 0.11432-3.802 0.51996-5.1859 1.3668-0.05718 0.034991-0.12277 0.06737-0.1809 0.1005-0.05512 0.080441-0.11313 0.15333-0.1809 0.22111-1.839 1.8389-5.9066 2.0071-7.799 3.8995-1.5457 1.5457-2.9779 4.5053-4.6834 7.1558-0.01621 0.02521-0.02393 0.05525-0.0402 0.0804-6.0681 7.0747-10.91 15.78-12.623 22.894-1.4073 5.8458-1.3879 13.741-3.6985 19.558-0.64621 1.6267-3.3254 10.631-1.2462 12.382 1.4162 1.1926 7.4529 2.1057 9.2261 0 0.95431-1.1333 9.7051-3.9658 12.442-7.2161 3.2231-3.8275 4.8861-10.438 7.0955-16 0.35158-0.88499 0.80426-1.8241 1.3266-2.7538 1.2534 2.4278 2.2484 4.4101 2.7739 5.6281 1.0938 2.5355 2.2973 6.0417 3.2965 9.7889-2.1653 3.3171-1.2631 7.8557 0.30151 9.9296-6.3315 1.9712-3.3153 8.7827-3.5578 9.0251-0.41697 0.41709-1.7379 0.97409-2.2714 1.5075-0.66049 0.66049-0.76382 2.038-0.76382 3.0352 0 0.96218 0.12156 1.8172 0.30151 2.5729-5.7608 14.492-11.198 32.632-18.07 42.412-1.9779 0.90215-4.0014 1.6766-6.3719 2.1508-4.619 1.1551-16.295 3.4438-26.131 6.7538-0.42692 0.56739-0.92437 1.1254-1.4874 1.6884-0.97462 0.97461-2.9249 0.97513-3.8995 1.9498-0.75804 0.75804-3.1214-0.0947-3.8794 0.66332-2.2493 2.2493-5.5693 3.4178-9.1055 5.1859-0.3923 0.19614-1.6494-0.30036-1.9497 0-1.6064 1.6064-4.4827 2.533-5.8492 3.8995-2.6736 2.6736-4.9149 5.5782-7.799 8.4623-2.8663 2.8663 2.9791 10.758 3.8995 11.678 2.7084 2.7084 7.6835 3.1408 10.392 5.8492 1.1395 1.1394 4.9597-0.38436 6.3317 0.52262 0.35432 0.0498 0.67116 0.11447 0.88442 0.2211 3.9905 1.9953 11.818 3.4704 16.543 5.0452 6.5109 2.1703 11.675 7.9691 18.392 9.6482 5.1131 1.2783 10.92 1.9582 16.08 3.6784 2.1575 0.71916 4.7776 0.2257 6.8744 0.92462 3.9214 1.3071 7.4621 2.9296 11.035 4.1206 1.2376 0.41252 2.8728-0.31698 4.1407 0 2.8529 0.71322 5.937 0.92035 8.7236 1.8492 4.962 1.654 11.581-1.654 16.543 0 3.2701 1.09 23.629-0.65421 25.266-2.2914 1.2036-1.2036 5.7812 0.32549 7.3568-0.46232 1.3675-0.68377 5.5205-0.0129 6.4322-0.92462 2.3546-2.3546 7.1881-2.4584 10.553-4.1407 1.4153-0.70767 3.5967 0.27199 5.0653-0.46231 0.84473-0.42237 2.5609 0.0973 4.4221 0.90452 3.5419-0.0744 6.2678-0.44221 9.809-0.44221 4.2101 0 10.022-1.999 16.181-5.0251 6.816-1.5354 15.147-3.3081 15.538-3.6985 2.9613-2.9613 10.833-2.1089 13.769-5.0452 2.0802-2.0802 4.753-2.9239 6.8945-5.0653 1.9078-1.9078 4.5288-4.0922 7.2764-6.392 0.47855-1.3337 1.7033-2.5877 2.8342-3.7186 0.47418-0.47418 3.8208-10.268 3.2161-11.477-1.1075-2.2149-2.9373-4.0468-5.0452-5.7488-0.65396-0.22399-1.1554-0.45193-1.3869-0.68341-2.2516-2.2516-7.6467-2.6015-9.6482-4.603-3.2229-3.2229-8.0685-6.1194-13.849-8.0603-1.2108-0.60012-2.3441-1.2386-3.1558-2.0502-1.0296-1.0296-6.9802-2.3444-8.7236-3.2161-0.93776-0.46889-2.9786 0.25758-3.6784-0.44221-1.6974-1.6974-8.8112-2.9067-13.95-4.5427-0.74927 0.0475-1.9516-0.52442-2.1708-0.74372-0.1546-0.1546-4.1379-0.74094-5.4472-2.0502-0.14864-0.14864-0.68342-5.4857-0.68342-6.1508 0-0.24521-0.59508-1.2341-0.2412-1.5879 0.0551-0.0551 0.10886-0.11983 0.1608-0.1809-2.3783-14.656-4.1968-30.839-5.9096-32.281-2.5433-2.1418-3.9563-13.966-6.7538-16.322-2.9249-2.4629-4.7554-5.1562-7.0151-7.2563-1e-3 -0.0064 1e-3 -0.0137 0-0.02007-0.85016-4.6725-2.4645-9.922-2.9749-10.352-0.82895-0.69812 0.42694-3.8647-0.40201-4.5628-2.5803-2.1728-5.9416-14.947-8.3618-16.985-3.1697-2.6693-4.7289-6.8122-7.7387-9.3467-7.437-6.2627-19.791-15.582-33.447-14.874-0.58707-0.16551-1.1587-0.36448-1.7086-0.58291-0.86822-0.34492-1.8527-0.46116-2.8744-0.44221z" fill="#3c6991"/>
 <g stroke="#fff" stroke-opacity="0">
  <path id="lune" d="m107.63 81.112c-1.1471-0.20682-2.2686-0.21881-3.1485 0.07311-1.4652 0.48632-3.8275-0.6652-5.3574-0.38905-5.7845 1.0441-10.32 2.6113-11.101 4.5558 8.5853-2.4614 18.117 3.0324 22.021 8.2528 1.6231 2.1698-0.88054 5.4585 3e-3 8.1207 0.20002 0.6027 0.36 4.4622-0.33498 4.982-1.4526 1.0866-1.3084 4.8784-2.5097 6.6088-2.8274 4.0729-5.2932 7.0486-7.6948 10.508-2.4767 3.5678-9.0989 4.2825-12.795 5.5093-0.81668 0.27109-1.8448-0.29253-2.7057-7e-3 -0.20344 0.0676-0.44058 0.0792-0.67737 0.0461 0.08311 0.0937 0.17913 0.18353 0.24767 0.27524 0.31172 0.41661 1.832 0.0197 2.2763 0.32814 2.8721 1.9938 14.237 1.2289 17.388 0.1831 1.9606-0.6508 3.7791-1.6119 5.7397-2.2626 2.5144-0.8346 4.9891-4.7445 6.7948-6.7575 6.2108-6.9238 9.049-18.916 5.9773-28.17-1.544-4.652-5.5861-7.4402-9.0269-9.8288-1.1764-0.81673-3.1852-1.6836-5.0972-2.0283z" fill="#e6b35a" stroke-width="1.1795"/>
  <path d="m129.18 63.035c-0.36974-0.01177-0.42169 3.6086-0.45038 5.3344-0.17375 0.01023-0.16596 0.22768-0.11917 0.47416-1.8667 0.82895-5.93 2.4891-5.619 2.8213 0.0147 0.0075 0.0162 0.01795 0.0235 0.02367-0.14712 0.0075-0.30147 0.05725-0.30824 0.2608-0.0147 0.26809 0.53807 0.01473 0.80614 0.02367 0.43242 0.01473 4.212 1.4081 5.7138 2.0389 0.18627 1.4278 0.73493 2.2802 0.73493 3.9119 0 1.0172 0.20054 2.4183 0.26086 2.4183 0.0221 0 0.0633-0.03132 0.0942-0.04753 0.0441 0.17648 0.0942 0.28081 0.16597 0.21337 0.29515-0.27632 0.83085-1.0171 1.3751-1.8493 0.0235-0.03576 0.0486-0.05873 0.0706-0.09476 0.95813-1.1865 2.0522-2.7056 2.9872-4.0779 1.8125 0.26373 3.4729 0.47418 3.8881 0.47418 0.19936 0 7.0869 1.1835 5.0974-0.8061-0.12065-0.12139-0.26204-0.22448-0.40299-0.33193 0.0441-0.03499 0.0692-0.07091 0.0706-0.11859 0.0147-0.38406-3.8303-2.1515-4.4572-2.8213-0.30251-0.32311-0.74082-0.53043-1.0432-0.85352-0.0795-0.08489 0.0706-0.32203 0.30824-0.66385v-0.02367c0.53454-0.59046 1.1051-1.2001 1.5172-1.6122 0.19759-0.19757 1.3105-2.2797 0.25483-2.1426-0.71226 0.09255-3.0387 0.2397-6.0857 1.132 0 0-0.82277-1.076-0.82836-1.073-0.66165-0.2707-2.536-2.5605-4.0569-2.6107z" fill="#f00" stroke-width="1.1795"/>
  <path d="m104.28 71.638c-0.21952 0.10594-0.55249 0.53684-0.65827 0.31742-0.10594-0.21943 0.87764-0.42322 0.65827-0.31742-0.65474 0.3157-3.187 2.597-2.2539 3.318 0.76774 0.59324 3.6145-0.5163 4.8224-0.09431 0.18052 0.06297 2.1868 3.1414 2.5011 2.2422 0.51232-1.4668-0.12211-3.9603-0.10593-4.0055 0.23629-0.67662 2.0891-0.39891 2.5419-0.61726 0.37415-0.18033 1.1328-0.50006 1.2372-0.7994 0.028-0.08136 0.0486-0.32148 0.0853-0.24391 0.0309 0.06284-0.49452-0.44648-1.1344-0.66999-0.95636-0.33413-1.9244-0.12478-2.6096-0.36429-0.31618-0.1105 0.0647-1.9695-0.05-2.207-0.37666-0.78104-0.61546-1.697-0.54969-1.5604 0.18701 0.38788-0.80938 0.37929-1.0726 0.72004-0.3278 0.42425-1.1871 1.8624-1.7426 1.8545-0.66578-0.01035-3.3327-0.6447-3.5118-0.13213-0.0147 0.02882 1.6622 1.6884 1.8427 2.5596z" fill="#e6b35a" stroke-width=".80339"/>
  <path d="m140.16 119.64c-0.17847-0.16574-0.70123-0.31875-0.53556-0.49724 0.16582-0.17854 0.71418 0.66299 0.53556 0.49724-0.53262-0.49458-3.58-2.021-3.9112-0.88925-0.2725 0.93123 1.7984 3.1775 1.8458 4.4563 0.0147 0.19103-2.1281 3.1816-1.1762 3.1463 1.5527-0.0576 3.6434-1.5571 3.6913-1.5589 0.71624-0.0266 1.1331 1.8 1.5015 2.1421 0.30426 0.28256 0.87853 0.87241 1.1953 0.86065 0.0868-3e-3 0.31677-0.0726 0.25822-0.0103-0.0471 0.0514 0.23541-0.62331 0.2104-1.3006-0.0383-1.0124-0.58515-1.8375-0.61207-2.5629-0.0147-0.33462 1.8576-0.6579 2.0368-0.85119 0.59001-0.63542 1.356-1.1917 1.2528-1.0806-0.29309 0.31558-0.64827-0.61537-1.0616-0.73634-0.51452-0.15057-2.167-0.42642-2.3621-0.94666-0.2338-0.62354-0.61457-3.3385-1.1572-3.3183-0.0309 6.4e-4 -0.96637 2.1633-1.7118 2.649z" fill="#f55" stroke-width=".80339"/>
  <path d="m188.69 121.56c-0.51937 1.7864-3.7752 7.5139-5.1457 8.8844-1.7627 1.7627-3.2787 3.6003-4.8241 5.1457-1.0951 1.0951-4.221 3.8994-5.1457 4.8241-2.0108 2.0107-3.1888 1.2592-5.4673 3.5377-1.1294 1.1294-3.4028 1.1515-4.5025 2.2512-0.99472 0.99472-8.9749 1.593-10.935 2.5729-0.47427 0.23714-1.8907-0.36055-2.2512 0-1.408 1.408-12.534 1.9206-12.864 2.2512-1.7034 1.7034-6.2382-0.25776-8.6834 0.96483-2.1684 1.0842-6.4729 0.32161-9.005 0.32161-1.4022 0-5.128-0.0266-8.9648-0.12061-0.90576-0.1282-1.6192-0.23-1.6482-0.201-0.0194 0.0194-0.1063 0.10837-0.1608 0.1608-0.72066-0.0222-1.4146-0.0524-2.1106-0.0804-0.43323-0.16495-0.89299-0.26707-1.2663-0.0804-0.0173 9e-3 -0.042 0.0117-0.0603 0.0201-2.9939-0.14471-5.4372-0.35679-6.0502-0.66332-2.5166-1.2583-5.2194-1.608-8.3618-1.608-4.9184 0-15.809-5.814-19.618-7.7186-0.5834-0.2917-2.2013-1.9879-3.0754-2.4523-0.0069-0.3366-0.01885-0.64198-0.1407-0.76382-0.89622-0.89623-1.2886-2.8989-1.9296-4.1809-0.26672-0.53344 0-2.4888 0-2.2512 0 0.0105 0.64643-2.5729 0.64322-2.5729-0.55106 0-3.4333 3.7549-4.5025 4.8241-0.01 0.01 0.02013 0.0681 0.0402 0.12061-0.60257 0.8305-1.0251 2.0699-1.0251 3.9397 0 6.3743 3.5159 6.7119 6.8141 10.01 0.80979 0.80979 2.5434 0.27208 3.1759 0.90453 0.64572 0.64572 1.5935 1.2193 2.7136 1.7286-1.401 0.82137-4.1002 1.0248-4.9849 1.9096-0.86531 0.86531-4.8773 3.3532-6.3719 4.1005-0.28099 0.1405-1.6405 0.29372-1.809 0.46231-8.496 8.496-18.084 13.984-25.93 21.829-0.66049 0.66049-0.90452 9.2869-0.90452 10.915 0 2.8417-0.96513 5.8489 0.90452 7.7186 0.78877 0.78878 3.4041 0.22823 4.1005 0.92463 0.15097 0.15097 2.0527 1.5653 2.2714 1.3467 0.82997-0.82997-0.46231-5.1692-0.46231-6.3518 0-6.2106 0.67027-12.489 4.5628-16.382 7.506-7.506 18.208-10.932 25.005-17.729 1.998-1.998 5.6588-3.0619 8.3216-5.2462-0.09336 0.64054 0.0155 1.244 0.48241 1.7487 0.31039 0.33554 1.4164-0.3288 1.809-0.1206 2.6707 1.4161 10.81 4.4522 13.206 1.5276 0.43454 0.82621 0.77894 1.6634 1.206 2.0904 1.5954 1.5954 0.34781 9.2943-0.46231 10.915-3.0567 6.1133-4.6686 23.764-7.2764 26.372-0.45023 0.45024 0.54019 4.7387 0.90452 5.4673 0.94757 1.8951-0.69347 6.1206 0 6.8141 0.68223 0.68223 0.24239 2.4936 0.92462 3.1759 0.62109 0.62109 3.4593-0.15878 4.0804 0.46231 0.24621 0.24621 3.4818 2.4478 4.1005 1.8292 0.51266-0.51266-1.4034-6.4249-1.8291-7.2764-0.36676-0.73353 0.98768-14.194 1.3668-14.573 0.53063-0.53062-0.53063-2.6453 0-3.1759 1.0332-1.0332 2.2714-22.443 2.2714-25.467 0-0.51046 1.3049-3.7002 0.46232-4.5427-5e-3 -5e-3 -0.7536-1.725-1.7688-3.397 1.4994 0.11135 2.7644 0.29207 3.1357 0.66332 0.66753 0.66752 14.124 0 16.362 0 8.8857 0 22.864-0.68843 28.201-1.8292 2.1274-0.45472 7.1726-0.85264 10.01-2.2714 1.6471-0.82356 7.4485-1.387 8.4623-1.6482 2.1664-0.55831 9.128-2.2335 11.075-4.1809 1.4443-1.4443 6.3828-6.4477 8.201-7.3568 2.0498-1.0249 3.0792-4.6657 4.2814-6.3518 0.15431-1.2483 3.5138-4.5101 2.8543-5.8292-0.74842-3.0457-1.2162-6.1944-2.4121-6.3116z" fill="#e6b35a"/>
 </g>
 <text x="100.06236" y="178.95769" fill="#000000" font-family="sans-serif" font-size="24px" style="line-height:1.25" xml:space="preserve">
   <tspan x="100.06236" y="178.95769" fill="#ff0000" font-family="'Script MT Bold'" font-size="24px">Choixpeau</tspan></text>
</svg>
