<?xml version="1.0" encoding="UTF-8"?>
<svg width="256px" height="194px" preserveAspectRatio="xMidYMid" version="1.1" viewBox="0 0 256 194" xmlns="http://www.w3.org/2000/svg" xmlns:cc="http://creativecommons.org/ns#" xmlns:dc="http://purl.org/dc/elements/1.1/" xmlns:rdf="http://www.w3.org/1999/02/22-rdf-syntax-ns#">
  <style>
    @media screen and (max-width:50em) {
    		.texte {
    						fill: RebeccaPurple;
    			 }
          }
  </style>
 <path d="m170.76 111.61c16.824 0 41.166-3.4698 41.166-23.481 0.0503-1.5444-0.0897-3.0892-0.41691-4.5995l-10.019-43.52c-2.3132-9.5755-4.3439-13.919-21.155-22.325-13.045-6.6706-41.462-17.685-49.868-17.685-7.8271 0-10.1 10.087-19.433 10.087-8.9837 0-15.654-7.5313-24.06-7.5313-8.0692 0-13.328 5.5005-17.389 16.811 0 0-11.31 31.9-12.763 36.527-0.23086 0.84955-0.33063 1.7294-0.29587 2.609 0 12.4 48.819 53.055 114.23 53.055m43.749-15.305c2.3266 11.014 2.3266 12.171 2.3266 13.624 0 18.828-21.168 29.278-48.994 29.278-62.886 0.0403-117.97-36.809-117.97-61.165-0.0036-3.3902 0.6875-6.7452 2.0308-9.8579-22.621 1.1297-51.898 5.1643-51.898 31.013 0 42.336 100.31 94.517 179.74 94.517 60.896 0 76.254-27.543 76.254-49.289 0-17.107-14.794-36.527-41.462-48.119" fill="#e00"/>
 <path id="ruban" d="m214.51 96.252c2.3266 11.014 2.3266 12.171 2.3266 13.624 0 18.828-21.168 29.278-48.994 29.278-62.886 0.0403-117.97-36.809-117.97-61.165-0.0036-3.3902 0.68751-6.7452 2.0308-9.8579l4.9222-12.185c-0.22546 0.83224-0.32519 1.6935-0.29587 2.5553 0 12.4 48.819 53.055 114.23 53.055 16.824 0 41.166-3.4698 41.166-23.481 0.0503-1.5444-0.0897-3.0892-0.41691-4.5995z" fill="#6c5353"/>
 <text id="php" transform="rotate(6.5)" x="99.484024" y="62.123085" fill="#550000" font-family="sans-serif" font-size="40px" style="line-height:1.25" xml:space="preserve">
   <tspan class="texte" x="99.484024" y="62.123085">
     <?php echo $texte; ?></tspan>
 </text>
</svg>
