<?xml version="1.0" encoding="UTF-8"?>
<svg xmlns="http://www.w3.org/2000/svg" width="594" height="176" viewBox="0 0 594 176">
    <title lang="fr">Horoscope Cochon</title>
    <desc lang="fr">Symbole du signe astrologique chinois cochon</desc>
    <path d="M47 162.16v-39.59h8.22v15.1h15.36v-15.1h8.21v39.59h-8.21v-17.67H55.19v17.67zM110.54 158.58q-3.71 4.57-11.26 4.57T88 158.58a18.19 18.19 0 0 1 0-22q3.7-4.65 11.25-4.65t11.26 4.65a18.19 18.19 0 0 1 0 22zm-6.13-4.23a11.13 11.13 0 0 0 1.8-6.79q0-4.4-1.8-6.77a6.8 6.8 0 0 0-10.32 0q-1.82 2.37-1.81 6.77a11.06 11.06 0 0 0 1.81 6.79 6.78 6.78 0 0 0 10.32 0zM136 132.2h.66v7.84c-.48-.05-.91-.09-1.29-.11h-.91q-4.62 0-6.21 3a11.69 11.69 0 0 0-.88 5.21v14h-7.71v-29.26H127V138a16.23 16.23 0 0 1 3.08-4 8.43 8.43 0 0 1 5.59-1.8zM165.54 158.58q-3.71 4.57-11.26 4.57T143 158.58a18.19 18.19 0 0 1 0-22q3.71-4.65 11.25-4.65t11.26 4.65a18.19 18.19 0 0 1 0 22zm-6.13-4.23a11.13 11.13 0 0 0 1.8-6.79q0-4.4-1.8-6.77a6.8 6.8 0 0 0-10.32 0q-1.82 2.37-1.81 6.77a11.06 11.06 0 0 0 1.81 6.79 6.78 6.78 0 0 0 10.32 0zM180.66 152.81a5.07 5.07 0 0 0 1.05 2.9c.95 1 2.72 1.53 5.29 1.53a8.05 8.05 0 0 0 3.6-.67 2.24 2.24 0 0 0 .26-4q-1.08-.67-8-2.31c-3.32-.83-5.67-1.86-7-3.09a6.7 6.7 0 0 1-2-5.27 9.09 9.09 0 0 1 3.19-7q3.19-2.92 9-2.92a16.44 16.44 0 0 1 8.94 2.19q3.47 2.19 4 7.56h-7.65a4.67 4.67 0 0 0-.83-2.34c-.85-1-2.28-1.55-4.31-1.55a6.2 6.2 0 0 0-3.57.78 2.22 2.22 0 0 0-1.06 1.82 2 2 0 0 0 1.13 1.91q1.13.62 8 2.12a14.66 14.66 0 0 1 6.85 3.25 7.35 7.35 0 0 1 2.26 5.5 8.9 8.9 0 0 1-3.24 7.11q-3.24 2.74-10 2.75t-10.21-2.91a9.47 9.47 0 0 1-3.29-7.43zM222.82 143.39a6.76 6.76 0 0 0-1.1-3 4.65 4.65 0 0 0-4-1.77 5.28 5.28 0 0 0-5.31 3.84 16 16 0 0 0-.75 5.41 14.72 14.72 0 0 0 .75 5.17 5.13 5.13 0 0 0 5.17 3.65 4.54 4.54 0 0 0 3.82-1.45 7.21 7.21 0 0 0 1.38-3.76h7.81a12.78 12.78 0 0 1-2.53 6.61q-3.6 5-10.67 5T207 159q-3.33-4.19-3.33-10.86 0-7.53 3.68-11.72t10.16-4.19a15.31 15.31 0 0 1 9 2.47q3.51 2.46 4.15 8.73zM260.31 158.58q-3.71 4.57-11.25 4.57t-11.25-4.57a18.15 18.15 0 0 1 0-22q3.7-4.65 11.25-4.65t11.25 4.65a18.15 18.15 0 0 1 0 22zm-6.12-4.23a11.13 11.13 0 0 0 1.8-6.79q0-4.4-1.8-6.77a6.81 6.81 0 0 0-10.33 0q-1.81 2.37-1.81 6.77a11.06 11.06 0 0 0 1.81 6.79 6.79 6.79 0 0 0 10.33 0zM294.11 136q3.58 3.78 3.58 11.12 0 7.72-3.5 11.78a11.34 11.34 0 0 1-9 4.06 9.42 9.42 0 0 1-5.84-1.75 11 11 0 0 1-2.49-2.82v15.26h-7.57v-40.8h7.33v4.33a12.24 12.24 0 0 1 2.65-3 9.76 9.76 0 0 1 6.11-2 11.56 11.56 0 0 1 8.73 3.82zm-5.87 5.5a5.46 5.46 0 0 0-5.06-2.6 5.74 5.74 0 0 0-5.78 3.95 14.81 14.81 0 0 0-.82 5.31c0 3.4.92 5.79 2.74 7.17a6.27 6.27 0 0 0 3.86 1.21 5.59 5.59 0 0 0 4.92-2.47 12.93 12.93 0 0 0 .14-12.57zM322.17 133.48a11.88 11.88 0 0 1 5.05 4.33 14.41 14.41 0 0 1 2.34 6.05 38 38 0 0 1 .25 5.81h-21.32q.18 4.41 3.06 6.18a7.82 7.82 0 0 0 4.22 1.1 6 6 0 0 0 5.83-3.36h7.81a9.55 9.55 0 0 1-2.84 5.29q-3.93 4.27-11 4.27a16 16 0 0 1-10.31-3.6q-4.47-3.6-4.47-11.72 0-7.61 4-11.66a14.1 14.1 0 0 1 10.47-4.06 16.62 16.62 0 0 1 6.91 1.37zm-11.45 6.61a7.88 7.88 0 0 0-2 4.53h13.18a6.38 6.38 0 0 0-2-4.62 6.65 6.65 0 0 0-4.53-1.58 6 6 0 0 0-4.65 1.67zM353.36 126.71a16.29 16.29 0 0 1 12.17-4.89q9.89 0 14.45 6.55a14.31 14.31 0 0 1 2.71 7.39h-8.27a11.26 11.26 0 0 0-2-4.3q-2.2-2.58-6.55-2.58a8.09 8.09 0 0 0-7 3.64q-2.55 3.64-2.55 10.3t2.69 10a8.45 8.45 0 0 0 6.84 3.31 7.74 7.74 0 0 0 6.49-2.84 12.32 12.32 0 0 0 2.05-4.59h8.22a17.84 17.84 0 0 1-5.43 10.52 15.81 15.81 0 0 1-11.2 4.06q-8.44 0-13.29-5.48t-4.83-15.09q0-10.39 5.5-16zM413.09 158.58q-3.7 4.57-11.25 4.57t-11.25-4.57a18.15 18.15 0 0 1 0-22q3.71-4.65 11.25-4.65t11.25 4.65a18.15 18.15 0 0 1 0 22zm-6.09-4.23a11.13 11.13 0 0 0 1.8-6.79q0-4.4-1.8-6.77a6.81 6.81 0 0 0-10.33 0q-1.81 2.37-1.81 6.77a11.06 11.06 0 0 0 1.81 6.79 6.79 6.79 0 0 0 10.33 0zM439.79 143.39a6.9 6.9 0 0 0-1.11-3 4.63 4.63 0 0 0-4-1.77 5.28 5.28 0 0 0-5.3 3.84 15.75 15.75 0 0 0-.76 5.41 14.47 14.47 0 0 0 .76 5.17 5.11 5.11 0 0 0 5.17 3.65 4.55 4.55 0 0 0 3.82-1.45 7.2 7.2 0 0 0 1.37-3.76h7.82a12.87 12.87 0 0 1-2.53 6.61q-3.6 5-10.67 5c-4.72 0-8.18-1.4-10.41-4.19s-3.33-6.41-3.33-10.86q0-7.53 3.68-11.72t10.17-4.19a15.27 15.27 0 0 1 9 2.47q3.51 2.46 4.16 8.73zM473.9 133.05a8.49 8.49 0 0 1 3.62 2.87 7.65 7.65 0 0 1 1.48 3.38 43.39 43.39 0 0 1 .26 5.65v17.21h-7.81v-17.83a7.94 7.94 0 0 0-.8-3.82c-.69-1.36-2-2-3.95-2a5.41 5.41 0 0 0-4.57 2 9.34 9.34 0 0 0-1.56 5.79v15.87h-7.65v-39.46h7.65v14a9.41 9.41 0 0 1 3.84-3.56 10.8 10.8 0 0 1 4.58-1 12.35 12.35 0 0 1 4.91.9zM510.87 158.58q-3.71 4.57-11.25 4.57t-11.25-4.57a18.15 18.15 0 0 1 0-22q3.7-4.65 11.25-4.65t11.25 4.65a18.15 18.15 0 0 1 0 22zm-6.12-4.23a11.13 11.13 0 0 0 1.8-6.79q0-4.4-1.8-6.77a6.81 6.81 0 0 0-10.33 0q-1.82 2.37-1.81 6.77a11.06 11.06 0 0 0 1.81 6.79 6.79 6.79 0 0 0 10.33 0zM543.66 134.56q2.88 2.38 2.88 7.89v19.71h-7.85v-17.81a8.13 8.13 0 0 0-.61-3.54q-1.12-2.26-4.26-2.26a5.29 5.29 0 0 0-5.31 3.3 11.4 11.4 0 0 0-.75 4.46v15.85h-7.65v-29.22h7.41v4.27a12.89 12.89 0 0 1 2.78-3.21 9.66 9.66 0 0 1 6-1.77 11.24 11.24 0 0 1 7.36 2.33z" fill="#4c4d4e"/>
    <path d="M251.79 35.7a6 6 0 0 0 0 10.8c3 1.31 4.58-3.27 1.64-4.25-1.31-.66-.66-2.62.65-2A2 2 0 0 0 257 39c1.3-2.94-2.29-4.57-5.24-3.27" fill="#ff5400"/>
    <path d="M371.18 63.51a2.58 2.58 0 0 1-2.61-2.62V58.6a7.4 7.4 0 0 0-7.57-7.52h-2.29a53.07 53.07 0 0 0-.65-7.2c-1-10.47-8.83-20.28-21.59-27.15-11.77-6.54-27.15-9.81-42.85-9.81-10.47 0-22.24 2.94-29.77 5.89l-.65.32-.33-.65q-3.44-4.9-11.77-8.83l-7.81-4.58 2.94 19.3.33 2.94-.33.33a4.49 4.49 0 0 0-1 1.31l-2-6.55-2-7.19c-.32-.33-.65-.33-1-.66l-4.58-2.29L242 26.87A76.36 76.36 0 0 0 233.8 40l-.33.65-8.83 1.31-4.9 1 .65 4.91a26.32 26.32 0 0 0 4.91 12.1l1.3.33a71.18 71.18 0 0 1 5.24 4.9c2.94 10.14 8.83 18 18.64 22.25l5.89 16.68h5.56v-6.28h-1.31L258 90a24.26 24.26 0 0 0 5.56 1l5.56 13.09h11.45l3.92-9.49c3.93 0 7.53.33 11.45.33a142.66 142.66 0 0 0 17.34-1l3.6 9.81h5.88v-6.21h-1.63L319.5 93c1.64-.33 2.95-.33 4.25-.66l1-.32 5.25 11.72h10.47L347 88l.33-.33c7.85-4.9 12.1-16 11.77-32.38h2a2.58 2.58 0 0 1 2.56 2.71v2.29a7.4 7.4 0 0 0 7.52 7.52 2.23 2.23 0 0 0 2.29-2.29 2.19 2.19 0 0 0-2.29-2.01zm-26.49 20.28l-1.64 1-5.88 14.06h-4.58L327 86.4l-4.58 1a141.8 141.8 0 0 1-26.83 2.29c-4.9 0-9.81-.33-14.72-.33L277 98.83h-5.56l-5.56-12.75c-14.72-2-25.84-7.2-30.1-22.57l.33-1.31c-4.91-4.91-6.54-6.22-7.85-6.54a20.59 20.59 0 0 1-3.26-8.83l11.45-1.64 1.31-2.94a58.74 58.74 0 0 1 11.77-17l2-2-2.29-16c3.6 2 7.86 4.25 10.15 7.19l2.61 3.6 3.93-1.64c7.19-2.61 18.31-5.56 28.13-5.56 30.75 0 57.57 14.07 59.53 33 2.22 20.98-.72 35.37-8.9 39.95z" fill="#ff5400"/>
</svg>