<!-- Generator: Adobe Illustrator 19.0.0, SVG Export Plug-In . SVG Version: 6.00 Build 0)  -->
<svg version="1.1" id="Capa_1" xmlns="http://www.w3.org/2000/svg" xmlns:xlink="http://www.w3.org/1999/xlink" x="0px" y="0px"
	 viewBox="0 0 512.003 512.003" style="enable-background:new 0 0 512.003 512.003;" xml:space="preserve">
<g>
	<path style="fill:#B7462F;" d="M419.311,226.972l15.2,45.596l0.003,33.134c0,109.794-72.439,198.8-182.233,198.8
		c-109.794,0-182.234-89.006-182.234-198.8v-33.133l15.199-45.597c0.817-2.45,3.11-4.103,5.692-4.103h322.682
		C416.202,222.87,418.494,224.522,419.311,226.972z"/>
	<path style="fill:#93382A;" d="M428.51,272.568l-15.2-45.596c-0.817-2.45-3.109-4.102-5.692-4.102h-20
		c2.583,0,4.875,1.653,5.692,4.102l15.2,45.596l0.003,33.134c0,106.425-68.062,193.316-172.233,198.549
		c3.298,0.166,6.631,0.252,10,0.252c109.795,0,182.233-89.006,182.233-198.8L428.51,272.568z"/>
	<path style="fill:#FFD3AF;" d="M434.511,272.569L434.511,272.569L434.511,272.569l-15.2-45.597
		c-0.817-2.45-3.109-4.102-5.692-4.102H90.937c-2.583,0-4.876,1.653-5.692,4.103l-15.199,45.597l0,0l81.754,16.35
		c0.713,0.143,1.446,0.154,2.163,0.035l98.315-16.385h0.001l98.315,16.385c0.717,0.12,1.45,0.108,2.163-0.035L434.511,272.569z"/>
	<g>
		<g>
			<path style="fill:#FFBC86;" d="M413.311,226.972c-0.817-2.45-3.11-4.102-5.692-4.102h-20c2.583,0,4.875,1.653,5.692,4.102
				l15.2,49.531l-0.176,0.101l20.176-4.035v-0.001L413.311,226.972z"/>
		</g>
	</g>
	<path style="fill:#FFC065;" d="M214.178,247.719L163.563,51.29c-1.209-4.838-4.669-8.801-9.299-10.653L77.001,9.731
		c-3.077-1.231-6.568,0.266-7.799,3.342l-7.08,17.699c-1.231,3.077,0.266,6.569,3.342,7.799L132.534,65.4
		c1.773,0.709,3.103,2.22,3.581,4.069l46.072,178.25H214.178z"/>
	<path style="fill:#00E0D8;" d="M393.097,68.38L282.699,79.084c-6.593,0.639-7.44,9.919-1.071,11.741l35.292,10.096l33.431,37.7
		c0.861,0.971,2.014,1.637,3.286,1.897l49.365,10.101l26.388,25.515c4.762,4.604,12.375-0.769,9.632-6.798L393.095,68.379
		L393.097,68.38z"/>
	<path style="fill:#FFF1D0;" d="M403.003,150.619l-9.907-82.239l-76.176,32.541l33.431,37.7c0.861,0.971,2.014,1.637,3.286,1.897
		L403.003,150.619z"/>
</g>
<g>
	<path style="fill:#0C0A0B;" d="M152.88,379.469h33.133c4.142,0,7.5-3.358,7.5-7.5c0-4.142-3.358-7.5-7.5-7.5H152.88
		c-4.142,0-7.5,3.358-7.5,7.5C145.38,376.111,148.738,379.469,152.88,379.469z"/>
	<path style="fill:#0C0A0B;" d="M186.014,430.736H152.88c-4.142,0-7.5,3.358-7.5,7.5c0,4.142,3.358,7.5,7.5,7.5h33.133
		c4.142,0,7.5-3.358,7.5-7.5C193.514,434.094,190.156,430.736,186.014,430.736z"/>
	<path style="fill:#0C0A0B;" d="M219.146,397.603h-33.133c-4.142,0-7.5,3.358-7.5,7.5s3.358,7.5,7.5,7.5h33.133
		c4.142,0,7.5-3.358,7.5-7.5S223.288,397.603,219.146,397.603z"/>
	<path style="fill:#0C0A0B;" d="M458.936,194.995L401.52,68.788l6.354-11.005c2.071-3.587,0.842-8.174-2.745-10.245
		c-3.586-2.072-8.175-0.843-10.245,2.745l-6.354,11.005l-138.006,13.38c-3.586,0.348-6.418,3.196-6.745,6.783
		c-0.328,3.588,1.942,6.901,5.406,7.893l63.573,18.187l29.722,33.518l-42.909,74.321h-85.984L170.839,49.472
		c-1.109-4.436-3.514-8.391-6.814-11.41c-0.034-0.035-0.063-0.073-0.097-0.108c-0.295-0.295-0.612-0.552-0.941-0.788
		c-1.775-1.44-3.771-2.626-5.937-3.493L74.216,0.54c-3.848-1.541-8.211,0.332-9.749,4.178L52.93,33.558
		c-0.739,1.847-0.714,3.912,0.07,5.74c0.783,1.829,2.261,3.271,4.108,4.009l71.935,28.774l37.035,143.288H147.74
		c-4.142,0-7.5,3.358-7.5,7.5s3.358,7.5,7.5,7.5h22.216l2.546,9.85H103.18c-4.142,0-7.5,3.358-7.5,7.5c0,4.142,3.358,7.5,7.5,7.5
		h78.978c0.008,0,0.015,0.002,0.023,0.002c0.01,0,0.021-0.002,0.031-0.002h107.297c0.013,0,0.025,0.002,0.038,0.002
		c0.013,0,0.025-0.002,0.038-0.002h111.791c4.143,0,7.5-3.358,7.5-7.5c0-4.142-3.357-7.5-7.5-7.5h-98.832l5.687-9.85h104.307
		l12.171,36.511l-73.153,14.63l-98.044-16.34c-0.817-0.136-1.65-0.136-2.466,0l-98.044,16.34l-73.154-14.63l12.17-36.511h25.722
		c4.142,0,7.5-3.358,7.5-7.5s-3.358-7.5-7.5-7.5H86.612c-3.229,0-6.094,2.066-7.115,5.128l-16.566,49.7
		c-0.005,0.016-0.007,0.034-0.012,0.05c-0.09,0.277-0.168,0.559-0.227,0.851c-0.012,0.06-0.016,0.119-0.026,0.179
		c-0.013,0.074-0.022,0.148-0.033,0.222c-0.051,0.354-0.084,0.707-0.085,1.056c0,0.005-0.001,0.009-0.001,0.014v0.011
		c0,0.019,0,0.038,0,0.056v33.066c0,56.086,18.406,107.774,51.827,145.543c34.669,39.18,83.646,60.757,137.907,60.757
		c54.262,0,103.237-21.577,137.906-60.757c33.421-37.769,51.827-89.457,51.827-145.543l-0.003-33.064c0-0.02,0-0.041,0-0.061v-0.01
		c0-0.004-0.001-0.008-0.001-0.013c-0.001-0.348-0.034-0.701-0.085-1.054c-0.011-0.076-0.02-0.151-0.034-0.227
		c-0.01-0.059-0.014-0.117-0.026-0.176c-0.058-0.29-0.136-0.571-0.225-0.846c-0.006-0.018-0.008-0.038-0.014-0.056l-16.567-49.699
		c-1.021-3.063-3.887-5.128-7.115-5.128H316.892l38.579-66.821l43.889,8.98l47.535,45.963c1.443,1.395,3.323,2.108,5.216,2.108
		c1.506,0,3.019-0.452,4.322-1.373C459.376,202.151,460.427,198.274,458.936,194.995z M69.643,32.166l5.966-14.914l70.296,28.119
		l-12.357,12.357L69.643,32.166z M187.994,240.219L143.688,68.801l13.233-13.233l47.58,184.651H187.994z M285.224,240.219H219.99
		l-2.538-9.85h73.459L285.224,240.219z M427.012,281.718l0.002,23.985c0,110.847-73.486,191.3-174.733,191.3
		c-101.248,0-174.734-80.454-174.734-191.3v-23.985l73.862,14.772c0.892,0.178,1.807,0.192,2.704,0.043l98.167-16.36l98.166,16.36
		c0.409,0.068,0.821,0.102,1.233,0.102c0.493,0,0.985-0.049,1.471-0.146L427.012,281.718z M291.286,85.787l54.293-5.264
		l-29.156,12.455L291.286,85.787z M355.631,133.271l-26.196-29.54l57.41-24.525l7.467,61.98L355.631,133.271z M410.131,147.078
		l-3.792-31.474l22.586,49.647L410.131,147.078z"/>
</g>

</svg>
