<?xml version="1.0" encoding="UTF-8"?>
<svg width="670.39pt" height="500.73pt" preserveAspectRatio="xMidYMid" version="1.0" viewBox="0 0 670.39 500.73" xmlns="http://www.w3.org/2000/svg">
 <metadata>Created by potrace 1.15, written by Peter Selinger 2001-2017</metadata>
 <g transform="matrix(.1 0 0 -.1 -275.06 796.77)" fill="#008080">
  <path d="m7425 7964c-91-22-119-31-185-60-64-28-94-35-195-43-69-6-148-19-185-31-36-11-106-25-155-29-63-6-134-23-230-54-77-25-207-67-290-93-82-25-202-64-265-85-203-67-240-69-625-23-256 30-327 40-430 59-100 18-215 19-280 2-30-8-96-44-165-89-63-42-185-113-270-158-314-166-443-274-644-541-133-175-182-287-260-594-26-103-45-303-76-825-13-205-27-347-40-390-5-19-10-65-10-101 0-37-7-106-16-155-29-168-45-309-50-449-3-77-7-154-10-172-2-17-36-84-75-148-98-161-168-373-204-612-19-128-19-196-1-231 16-32 130-143 165-162 14-7 64-15 112-18 70-4 100-1 156 16 72 22 192 93 194 114 1 7 2 114 3 238 2 205 4 234 28 325 14 55 29 120 32 145 4 27 49 130 114 260 94 189 110 215 133 218 15 2 32-4 41-15 14-16 15-42 8-223-9-224-20-331-55-550-16-101-20-151-13-164 5-10 7-35 3-55-3-20-9-57-11-83l-6-48 89-42 88-43 265-3c295-4 360 4 386 44 26 39 9 72-86 170-68 70-91 102-100 135-7 24-19 64-26 88-19 60-39 212-38 286 2 192 24 464 43 529 37 124 56 136 180 117 142-21 153-19 221 48 42 41 60 67 60 84 0 32 65 114 129 165 43 34 58 40 119 45 45 5 92 17 133 36 36 17 105 37 156 46 51 8 122 25 157 35 35 11 97 25 138 30 40 5 96 16 123 24l140 40c50 15 161 42 248 61 88 19 166 40 174 47 21 17 150 29 195 17 47-12 93-64 131-149 16-36 57-123 90-195l62-130-3-550c-3-610 1-576-74-737-28-60-39-94-34-111 7-30 127-181 162-204 21-14 45-15 162-10 136 6 377 38 440 58 41 13 88 53 107 90 27 51 19 83-36 151-104 128-129 240-89 406 11 46 24 122 30 170 19 170 60 830 64 1032 5 232 21 424 42 520 31 139 135 299 243 375 30 20 44 39 52 67 22 82 100 119 180 84 12-5 20 3 32 31 8 21 22 49 31 63 8 14 17 37 21 53 15 74 95 88 212 38 38-16 86-33 108-37 39-9 42-13 95-116 30-59 61-113 68-120 8-8 37-13 72-13 51-1 64-5 97-32 35-28 38-35 40-84 2-37 23-112 67-236 67-187 79-248 111-560 3-35 17-116 30-182 13-65 29-181 35-257 13-176 28-293 47-369 18-78 29-370 14-407-9-25-16-28-54-28-24 0-58 5-75 11-26 9-36 7-70-14-58-37-72-55-72-90 0-60 58-125 140-158 19-8 67-14 106-14 59 1 82 6 135 32 96 48 142 92 167 160 41 110 74 438 102 1003 9 188 4 586-10 730-23 240-51 404-107 625-53 212-73 342-83 540-12 256-54 441-168 750-57 155-165 347-229 406-40 38-153 75-269 89-54 6-121 15-149 20-27 6-102 12-166 15-87 3-130 10-170 26-81 31-214 58-331 65-80 5-114 12-151 31-47 23-148 38-192 27zm-4057-2300c3-75-25-235-56-327-20-56-47-81-61-58-10 15-6 50 15 151 7 36 23 115 34 175 25 135 26 137 47 133 15-3 19-16 21-74z" fill="#008080"/>
 </g>
 <text transform="rotate(-14.933)" x="75.426773" y="286.31839" fill="#008080" font-family="'Bodoni MT'" font-size="144px" stroke-width=".75" xml:space="preserve"><tspan x="75.426773" y="286.31839" fill="#ffffff" font-family="Broadway" font-size="144px" stroke-width=".75">PHP</tspan></text>
</svg>
