<?xml version="1.0" encoding="UTF-8"?>
<svg width="381.08pt" height="307.26pt" version="1.1" viewBox="0 0 381.08 307.26" xmlns="http://www.w3.org/2000/svg">
 <defs>
  <clipPath id="clip1">
   <path d="m97 17h163v290.26h-163z"/>
  </clipPath>
  <clipPath id="clip2">
   <path d="m268 16h113.08v291.26h-113.08z"/>
  </clipPath>
 </defs>
 <g fill="#008080">
  <g clip-path="url(#clip1)">
   <path d="m217.47 17.762v109h-42v-109h-15.5c7.5977 17.797 9.6992 40.898 6.5 69.5-6.6016 48.898-24.699 80.398-54.5 94.5-9.4023 39.199-14.199 81-14.5 125.5h5c2.8008-35 7.1992-51.301 13-49 6-1.5 7 14.898 3 49h4c2.8008-35 7.1992-51.301 13-49 6-1.5 7 14.898 3 49h5c2.8008-35 7.1992-51.301 13-49 6-1.5 7 14.898 3 49h16.5v-105.5h41.5v105.5h4c2.8008-35 7.1992-51.301 13-49 6-1.5 7 14.898 3 49h22v-289.5" fill="#008080"/>
  </g>
  <path d="m94.969 100.76c0 6.2969-2.1992 11.797-6.6992 16.199-4.5 4.5-10 6.8008-16.301 6.8008h-14v-64h14c6.3008 0 11.801 2.1992 16.301 6.6992s6.6992 10 6.6992 16.301zm65-83c-3.6016-16.5-16.199-21.5-38-15-40.301 9.3984-74.602 14.598-103 16-17.602 54.199-23 114.1-16 179.5 4.3008 36 12 71.398 23 106h22.5c-4.5-30.5-6.5-61-6-91.5 0.097656-4 3.3008-7.1016 9.5-9 22.5-5.4023 42.5-12.801 60-22 13.301-62 20.398-116.7 21.5-164"/>
  <g clip-path="url(#clip2)">
   <path d="m339.87 115.96c0 6.3984-2.1992 11.898-6.6992 16.301-4.3984 4.5-9.8984 6.6992-16.301 6.6992h-14v-64h14c6.4023 0 11.902 2.3008 16.301 6.6992 4.5 4.5 6.6992 10 6.6992 16.301zm38.5-44.699c-6.5-35.102-25.301-53.402-56.398-54.5h-53.5v290.5h5.5c2.8008-35 7.0977-51.301 13-49 6-1.5 7 14.898 3 49h4c2.8008-35 7.0977-51.301 13-49 6-1.5 7 14.898 3 49h28.898c0.60156-13.703-0.69922-27.402-3.8984-41l-9-54.5c11.098-4.7031 20.301-11.301 27.398-20 24.199-27.402 32.602-67.703 25-120.5" fill="#008080"/>
  </g>
 </g>
</svg>
