<svg style="max-width:100%; height:70px; fill: #FF4500; stroke: tomato" viewBox="0 35 200 120">
  <g>
      <path fill="none" stroke-width="4" stroke-miterlimit="10" d="M149.26,94.208h30.807
  c4.976,0,7.922,3.325,7.922,9.806v20.233c0,4.376-3.547,7.924-7.922,7.924H88.91c-6.291,0-8.426-3.69-8.426-9.17
  c0-0.733-0.018-1.897-0.018-1.897"/>
      <circle fill="none" stroke-width="4" stroke-miterlimit="10" cx="30.879" cy="98.427"
                                  r="7.549"/>
        <g>
            <g>
                <path stroke-width="0" d="M42.607,67.829c13.203,0,24.453,8.362,28.742,20.08h33.766v-8.881c0-2.453,1.988-4.441,4.441-4.441
      c2.452,0,4.44,1.988,4.44,4.441v8.881h10.047v-4.97c0-2.453,1.988-4.441,4.44-4.441c2.453,0,4.441,1.988,4.441,4.441v5.82
      c3.748,1.609,6.373,5.33,6.373,9.667c0,5.809-4.709,8.316-10.518,8.316H71.35c-1.891,12.99-15.539,22.281-28.742,22.281
      c-16.898,0-30.596-13.699-30.596-30.599C12.012,81.526,25.709,67.829,42.607,67.829 M42.607,63.829
      c-19.076,0-34.596,15.521-34.596,34.598c0,19.078,15.52,34.599,34.596,34.599c7.322,0,14.978-2.573,21.002-7.062
      c5.451-4.062,9.253-9.374,10.954-15.221h54.22c8.818,0,14.518-4.834,14.518-12.316c0-4.877-2.433-9.351-6.373-12.019V82.94
      c0-4.655-3.787-8.441-8.441-8.441c-4.653,0-8.44,3.787-8.44,8.441v0.97h-2.047v-4.881c0-4.655-3.787-8.441-8.44-8.441
      c-4.654,0-8.441,3.787-8.441,8.441v4.881H74.02C68.408,71.792,56.121,63.829,42.607,63.829L42.607,63.829z"/>
          </g>
      </g>
      <g id="exe1">
          <path fill="none" stroke-width="4" stroke-miterlimit="10" d="M145.547,109.15"/>

          <line fill="none" stroke-width="4" stroke-miterlimit="10" x1="145.547" y1="120.777"
                x2="157.172" y2="109.15"/>

          <line fill="none" stroke-width="4" stroke-miterlimit="10" x1="145.547" y1="109.15"
                x2="157.172" y2="120.777"/>
      </g>
      <g id="exe2">
          <path fill="none" stroke-width="4" stroke-miterlimit="10" d="M167.699,109.15"/>

          <line fill="none" stroke-width="4" stroke-miterlimit="10" x1="167.699" y1="120.777"
                x2="179.324" y2="109.15"/>

          <line fill="none" stroke-width="4" stroke-miterlimit="10" x1="167.697" y1="109.15"
                x2="179.324" y2="120.777"/>
      </g>
  </g>
</svg>
