<?xml version="1.0" encoding="utf-8"?><svg xml:space="preserve" viewBox="0 0 100 100" y="0" x="0" xmlns="http://www.w3.org/2000/svg" id="圖層_1" version="1.1" width="200px" height="200px" xmlns:xlink="http://www.w3.org/1999/xlink" style="width:100%;height:100%;background-color:rgb(255, 255, 255);animation-play-state:paused" ><g class="ldl-scale" style="transform-origin:50% 50% 0px;transform:rotate(0deg) scale(0.8);animation-play-state:paused" ><path fill="#c33737" d="M52 14.5V90c20.8 0 37.7-16.9 37.7-37.7S72.9 14.5 52 14.5z" style="fill:rgb(195, 55, 55);animation-play-state:paused" ></path>
<path fill="#f8b26a" d="M48 10c-13.9 0-26.1 7.6-32.6 18.8L48 47.6V10z" style="fill:rgb(248, 178, 106);animation-play-state:paused" ></path>
<path fill="#666" d="M48 90V52.1L15.4 33.3c-3.2 5.6-5.1 12-5.1 19C10.3 73.1 27.1 90 48 90z" style="fill:rgb(102, 102, 102);animation-play-state:paused" ></path>
<path fill="#f47e60" d="M48 90V52.1L15.4 33.3c-3.2 5.6-5.1 12-5.1 19C10.3 73.1 27.1 90 48 90z" style="fill:rgb(244, 126, 96);animation-play-state:paused" ></path>
<metadata xmlns:d="https://loading.io/stock/" style="animation-play-state:paused" ><d:name style="animation-play-state:paused" >pie chart</d:name>
<d:tags style="animation-play-state:paused" >visualization,dashboard,data analysis,report,graph,pie chart,web application</d:tags>
<d:license style="animation-play-state:paused" >by</d:license>
<d:slug style="animation-play-state:paused" >na60o3</d:slug></metadata></g><!-- generated by https://loading.io/ --></svg>