<?xml version="1.0" encoding="UTF-8"?>
<!-- Generator: Adobe Illustrator 16.0.0, SVG Export Plug-In . SVG Version: 6.00 Build 0)  -->
<!DOCTYPE svg PUBLIC "-//W3C//DTD SVG 1.1//EN" "http://www.w3.org/Graphics/SVG/1.1/DTD/svg11.dtd">
<svg version="1.1" id="Layer_1" xmlns="http://www.w3.org/2000/svg" xmlns:xlink="http://www.w3.org/1999/xlink" x="0px" y="0px"  preserveAspectRatio="xMidYMid" viewBox="-3 -3 287.16 287.891" enable-background="new -3 -3 287.16 287.891" xml:space="preserve">
<path fill="#E2BA96" stroke="#282828" stroke-width="6" stroke-linecap="round" stroke-linejoin="round" stroke-miterlimit="10" d="  M281.16,140.579C281.16,62.939,218.221,0,140.58,0C62.94,0,0,62.939,0,140.579c0,10.97,1.258,21.646,3.635,31.893  c2.031-1.707,4.37-3.115,6.985-4.12c8.132-3.124,16.899-1.622,23.415,3.208c1.212-0.729,2.499-1.369,3.865-1.894  c9.142-3.514,19.087-1.185,25.733,5.151c11.264-3.727,23.484,1.19,29.127,11.394c10.434-0.685,20.541,5.41,24.487,15.685  c0.527,1.373,0.916,2.766,1.186,4.159c7.943,1.611,14.919,7.114,18.042,15.24c0.769,2,1.255,4.039,1.483,6.074  c6.624,2.272,12.231,7.353,14.938,14.4c1.641,4.268,2.004,8.707,1.285,12.907c3.338,2.637,6.034,6.174,7.672,10.434  c1.817,4.733,2.069,9.687,1.013,14.281C229.915,268.713,281.16,210.634,281.16,140.579z"/>
<circle fill="#5F5149" stroke="#282828" stroke-width="3" stroke-miterlimit="10" cx="112.319" cy="64.492" r="22.464"/>
<circle fill="#5F5149" stroke="#282828" stroke-width="3" stroke-miterlimit="10" cx="200" cy="74.637" r="12.319"/>
<circle fill="#5F5149" stroke="#282828" stroke-width="3" stroke-miterlimit="10" cx="134.783" cy="136.231" r="10.869"/>
<circle fill="#5F5149" stroke="#282828" stroke-width="3" stroke-miterlimit="10" cx="204.35" cy="186.956" r="29.71"/>
<circle fill="#5F5149" stroke="#282828" stroke-width="3" stroke-miterlimit="10" cx="47.174" cy="128.666" r="18.84"/>
<circle fill="#5F5149" stroke="#282828" stroke-width="3" stroke-miterlimit="10" cx="89.493" cy="273.246" r="10.145"/>
<circle fill="#5F5149" stroke="#282828" stroke-width="3" stroke-miterlimit="10" cx="57.319" cy="222.492" r="22.464"/>
</svg>